<svg width="176" height="38" viewBox="0 0 176 38" fill="none" xmlns="http://www.w3.org/2000/svg">
<path d="M14.5187 7.67934C11.111 7.67934 9.13505 9.20954 8.19004 10.2297C8.0755 9.32289 7.47413 8.16107 5.12594 8.16107H0V13.4318H2.09047C2.4341 13.4318 2.54865 13.5451 2.54865 13.8852V38H8.61959V28.3087C9.5646 29.1588 11.3687 30.349 14.2037 30.349C20.1315 30.349 24.2838 25.7017 24.2838 19.0142C24.3124 12.2416 20.3606 7.67934 14.5187 7.67934ZM13.2873 25.1066C10.0228 25.1066 8.53368 22.0179 8.53368 19.1275C8.53368 14.5936 11.0251 12.9784 13.3733 12.9784C16.2369 12.9784 18.1842 15.4154 18.1842 19.0708C18.1556 23.2647 15.6928 25.1066 13.2873 25.1066Z" fill="#203232"/>
<path d="M32.4738 24.1715V11.3915C32.4738 9.23788 31.4143 8.18941 29.2665 8.18941H23.8256V13.4601H25.9161C26.2597 13.4601 26.3742 13.5735 26.3742 13.9135V26.6368C26.3742 28.8188 27.4052 29.8389 29.5815 29.8389H35.0225V24.5966H32.932C32.617 24.6249 32.4738 24.4832 32.4738 24.1715Z" fill="#203232"/>
<path d="M48.3384 7.67934C44.9307 7.67934 42.9548 9.20954 41.9811 10.2297C41.8666 9.32289 41.2652 8.16107 38.917 8.16107H33.8197V13.4318H35.9102C36.2538 13.4318 36.3684 13.5451 36.3684 13.8852V38H42.4966V28.3087C43.4416 29.1588 45.2743 30.349 48.0807 30.349C54.0085 30.349 58.1608 25.7017 58.1608 19.0142C58.1608 12.2416 54.2089 7.67934 48.3384 7.67934ZM47.1071 25.1066C43.8425 25.1066 42.3534 22.0179 42.3534 19.1275C42.3534 14.5936 44.8448 12.9784 47.193 12.9784C50.0566 12.9784 52.0039 15.4154 52.0039 19.0708C52.0039 23.2647 49.5412 25.1066 47.1071 25.1066Z" fill="#203232"/>
<path d="M69.5867 7.67934C63.029 7.67934 58.4758 12.355 58.4758 19.0142C58.4758 25.5884 63.4012 30.349 70.2167 30.349C75.5718 30.349 78.8363 27.2036 78.9795 27.0902L79.2372 26.8635L76.6027 22.528L76.2018 22.8963C76.1731 22.9247 73.7677 25.1066 70.589 25.1066C67.5535 25.1066 65.3199 23.2647 64.7758 20.3743H79.18L79.2086 19.9776C79.2086 19.921 79.3518 18.6458 79.3518 18.0224C79.3518 11.8449 75.4286 7.67934 69.5867 7.67934ZM65.0049 15.8971C65.6635 13.7718 67.3244 12.5533 69.5867 12.5533C71.4195 12.5533 72.8227 13.9418 73.0804 15.8971H65.0049Z" fill="#203232"/>
<path d="M101.459 24.1715V3.23042C101.459 1.07681 100.4 0.0283361 98.2232 0.0283361H92.7823V5.29903H94.8727C95.2164 5.29903 95.3309 5.41238 95.3309 5.75242V9.54959C94.4432 8.75615 92.6964 7.70768 89.6609 7.70768C83.7618 7.70768 79.6381 12.3833 79.6381 19.0425C79.6381 25.8151 83.59 30.3773 89.4318 30.3773C92.7823 30.3773 94.7296 28.8471 95.6746 27.7703C95.7891 28.7054 96.4191 29.8956 98.6814 29.8956H103.95V24.6532H101.917C101.574 24.6249 101.459 24.4832 101.459 24.1715ZM90.6059 25.1066C87.7136 25.1066 85.8523 22.7263 85.8523 19.0142C85.8523 15.4154 87.7995 13.0067 90.6918 13.0067C93.985 13.0067 95.4455 16.0104 95.4455 18.9858C95.4455 23.5198 92.9541 25.1066 90.6059 25.1066Z" fill="#203232"/>
<path d="M117.496 7.8777C114.976 7.8777 112.627 9.32289 111.253 11.6182V11.1365C111.253 9.1812 110.165 8.16107 108.017 8.16107H102.805V13.4318H104.896C105.239 13.4318 105.354 13.5451 105.354 13.8852V29.8389H111.425V21.1678C111.425 20.0343 111.568 18.9292 111.854 17.909C112.771 14.9053 115.205 13.8568 117.152 13.8568C117.839 13.8568 118.355 13.9418 118.355 13.9418L118.87 14.0268V8.04772L118.498 7.99105C118.498 7.96271 117.982 7.8777 117.496 7.8777Z" fill="#203232"/>
<path d="M127.518 24.1715V11.3915C127.518 9.23788 126.459 8.18941 124.311 8.18941H119.386V13.4601H120.961C121.304 13.4601 121.419 13.5735 121.419 13.9135V26.6368C121.419 28.8188 122.45 29.8389 124.626 29.8389H130.067V24.5966H127.977C127.662 24.6249 127.518 24.4832 127.518 24.1715Z" fill="#203232"/>
<path d="M147.22 8.18941C145.33 8.18941 144.299 8.84116 143.698 10.428L139.746 21.3661C139.603 21.7629 139.488 22.2163 139.374 22.6696C139.259 22.2446 139.116 21.7629 138.973 21.3661L135.021 10.428C134.42 8.81282 133.446 8.18941 131.499 8.18941H128.062V13.4601H128.95C129.437 13.4601 129.58 13.6301 129.695 13.9135L135.823 29.8673H142.667L148.795 13.9135C148.91 13.6301 149.053 13.4601 149.54 13.4601H150.485V8.18941H147.22Z" fill="#203232"/>
<path d="M160.937 7.67934C154.379 7.67934 149.826 12.355 149.826 19.0142C149.826 25.5884 154.752 30.349 161.567 30.349C166.922 30.349 170.187 27.2036 170.33 27.0902L170.588 26.8635L167.953 22.528L167.552 22.8963C167.524 22.9247 165.118 25.1066 161.968 25.1066C158.933 25.1066 156.699 23.2647 156.155 20.3743H170.559L170.588 19.9776C170.588 19.921 170.702 18.6458 170.702 18.0224C170.702 11.8449 166.779 7.67934 160.937 7.67934ZM156.355 15.8971C157.014 13.7718 158.675 12.5533 160.937 12.5533C162.77 12.5533 164.173 13.9418 164.431 15.8971H156.355Z" fill="#203232"/>
<path d="M32.0443 0H26.632V5.63907H32.0443V0Z" fill="#203232"/>
<path d="M127.118 0H121.705V5.63907H127.118V0Z" fill="#203232"/>
<path d="M170.588 8.18941H171.39V10.343H171.991V8.18941H172.793V7.67934H170.588V8.18941Z" fill="#203232"/>
<path d="M175.17 7.67934L174.568 9.52125L173.938 7.67934H173.108V10.343H173.652V8.47278H173.68L174.339 10.343H174.797L175.456 8.47278V10.343H176V7.67934H175.17Z" fill="#203232"/>
</svg>
