<svg width="249" height="220" viewBox="0 0 249 220" fill="none" xmlns="http://www.w3.org/2000/svg">
<path d="M144.077 11.6384L168.283 11.2771C181.579 11.0604 195.525 10.9881 199.283 11.1326C203.04 11.2771 207.448 11.3494 209.038 11.3494C210.627 11.3494 212.362 11.7106 212.867 12.2163C213.373 12.7221 213.807 14.2393 213.807 15.612C213.735 16.9847 214.168 19.4411 214.602 21.0305C215.18 22.7645 216.914 25.2931 218.937 27.3161C221.828 30.2059 223.128 30.9284 230.716 32.4456L230.643 51.6634C230.643 67.5579 230.427 71.7482 229.343 75.9386C228.62 78.684 226.597 84.1025 224.718 87.8594C221.9 93.7115 220.455 95.6621 214.818 101.225C209.255 106.788 206.147 109.028 193.502 116.686C185.337 121.671 178.183 125.862 177.605 126.006C177.027 126.151 170.018 122.321 162.069 117.481C154.121 112.64 145.883 107.294 143.715 105.632C141.547 104.043 137.862 100.214 135.478 97.2516C133.093 94.2894 130.131 89.5211 128.83 86.7757C127.457 84.0303 125.867 79.7677 125.145 77.3835C124.133 73.8434 123.916 69.1473 123.699 52.6749C123.41 33.6016 123.483 32.2289 124.639 32.2289C125.361 32.2289 127.674 31.7231 129.697 31.1452C132.226 30.4227 134.683 28.9777 136.851 27.0271C138.657 25.2931 140.536 23.2702 140.969 22.4755C141.403 21.6808 142.27 18.9354 144.077 11.6384Z" fill="#333333"/>
<path d="M15.0213 81.5016C16.8278 80.4179 20.224 79.0452 22.6086 78.395C26.4383 77.3113 31.7132 77.239 107.875 77.3835L111.849 79.0452C114.017 79.9844 117.557 82.0074 119.581 83.5968C121.676 85.114 124.567 88.1484 125.939 90.1713C127.385 92.2665 129.119 96.0956 129.914 98.6965C130.853 101.731 131.359 105.416 131.359 109.172C131.359 112.351 130.925 116.542 130.347 118.565C129.841 120.515 129.191 122.755 128.902 123.405C128.469 124.633 129.48 124.706 155.566 125.067L160.407 127.379C163.153 128.679 167.127 131.497 169.367 133.52C171.824 135.904 174.209 139.011 175.509 141.684C176.666 144.068 177.966 148.403 178.4 151.437C178.978 155.411 178.978 158.228 178.4 162.058C177.966 164.947 176.81 169.066 175.871 171.088C174.859 173.184 172.836 176.363 171.246 178.169C169.729 179.975 167.272 182.215 163.153 185.032V194.208C163.153 202.299 163.009 203.528 161.852 204.106C160.985 204.611 159.974 204.467 158.456 203.528C157.3 202.805 152.386 199.193 138.946 188.934L107.513 189.006C89.1594 189.006 74.4908 188.717 72.2507 188.283C70.2275 187.922 66.6145 186.694 64.3022 185.61C61.9899 184.526 58.5215 181.998 56.3537 179.83C54.1859 177.591 51.6568 173.978 50.2839 171.088C48.1884 166.826 47.8993 165.381 47.6103 158.662C47.4658 152.954 47.6826 150.064 48.5497 147.102C49.2723 144.935 49.9226 142.695 50.1394 142.189C50.3562 141.539 49.0555 141.323 39.9508 141.395L30.1958 148.764C24.8486 152.81 19.7904 156.35 18.9956 156.711C18.1285 157 17.1891 156.856 16.611 156.35C15.9607 155.7 15.6717 152.81 15.7439 146.163C15.7439 140.528 15.4549 136.988 15.0213 136.988C14.5878 136.988 12.3477 135.109 9.8909 132.797C7.14504 130.196 4.68823 127.09 3.38756 124.344C2.15915 121.888 0.930738 117.698 0.424923 114.591C-0.153152 110.545 -0.153152 107.8 0.497182 103.754C0.930738 100.792 2.15915 96.6013 3.09852 94.5062C4.11015 92.4832 6.42245 89.0876 8.30119 87.0647C10.2522 85.0418 13.2148 82.5131 15.0213 81.5016Z" fill="#333333"/>
<path d="M116.907 1.59596C120.665 0.945731 124.783 0.295504 125.939 0.151009C127.096 0.00651455 133.454 -0.0657329 140.03 0.078762C148.412 0.295504 154.121 0.873484 159.179 1.88495C163.153 2.75192 169.151 4.34136 172.547 5.49732C175.943 6.58103 180.279 8.31497 185.915 10.9159L144.077 11.6384L142.92 16.3344C142.27 18.9353 141.403 21.6808 140.969 22.4755C140.536 23.2702 138.657 25.2931 136.851 27.0271C134.683 28.9777 132.226 30.4227 129.697 31.1452C127.674 31.7231 125.361 32.2289 124.639 32.2289C123.483 32.2289 123.41 33.6016 123.699 52.6749C123.916 69.1473 124.133 73.8434 125.145 77.3835C125.867 79.7677 127.457 84.0303 128.83 86.7757C130.131 89.5933 133.093 94.2894 135.478 97.2516C137.862 100.214 141.547 104.043 143.715 105.632C145.883 107.294 154.121 112.64 162.069 117.481C170.018 122.321 177.027 126.151 177.605 126.006C178.183 125.862 185.337 121.671 193.502 116.686C206.147 109.028 209.255 106.788 214.818 101.225C220.455 95.6621 221.9 93.7115 224.718 87.8594C226.597 84.1025 228.62 78.9007 229.198 76.2998C229.848 73.6989 230.571 66.9076 231.438 50.652L234.907 56.4318C236.785 59.6107 239.604 65.4627 241.193 69.4363C242.711 73.4099 244.806 80.0567 245.818 84.247C246.829 88.4374 248.058 95.2287 248.491 99.419C248.997 103.754 249.142 110.545 248.853 115.169C248.636 119.576 247.769 126.44 247.046 130.341C246.324 134.17 244.589 140.6 243.289 144.574C241.988 148.547 239.242 155.05 237.219 159.023C235.196 162.997 231.655 168.993 229.343 172.389C226.958 175.785 221.105 182.431 216.336 187.272C210.772 192.763 205.063 197.603 200.728 200.493C196.97 203.022 191.117 206.49 187.721 208.151C184.325 209.813 178.617 212.27 175.076 213.498C171.535 214.798 165.971 216.46 162.792 217.182C159.612 217.905 153.759 218.916 149.785 219.422C145.16 220 138.802 220.145 132.082 219.855C126.012 219.567 118.569 218.772 114.378 217.905C110.404 217.038 104.189 215.376 100.649 214.22C97.108 212.992 90.6046 210.247 86.1968 208.079C81.789 205.912 75.1411 201.938 71.3836 199.265C67.6262 196.592 61.2673 191.173 57.2931 187.2C53.3188 183.226 47.8993 176.868 45.2257 173.111C42.5522 169.355 38.5779 162.708 36.4101 158.301C34.2423 153.894 32.2913 149.703 32.0745 148.909C31.7855 147.753 32.5804 146.813 35.832 144.429C39.734 141.539 40.1676 141.395 45.1535 141.323C49.0555 141.323 50.3562 141.539 50.1394 142.262C49.9226 142.695 49.2723 144.935 48.5497 147.102C47.6826 150.064 47.4658 152.954 47.6103 158.662C47.8993 165.381 48.1884 166.826 50.2839 171.161C51.6568 173.978 54.1859 177.591 56.3537 179.83C58.5215 181.998 61.9899 184.526 64.3022 185.61C66.6145 186.694 70.2275 187.922 72.2507 188.283C74.4908 188.717 89.1594 189.006 138.946 188.934L147.617 195.58C152.386 199.193 157.3 202.805 158.456 203.528C159.974 204.467 160.985 204.611 161.852 204.106C163.009 203.528 163.153 202.299 163.153 185.032L165.827 183.226C167.272 182.215 169.729 179.975 171.246 178.169C172.836 176.363 174.859 173.328 175.798 171.305C176.738 169.355 177.894 165.236 178.328 162.274C178.978 158.228 178.978 155.483 178.4 151.437C177.966 148.403 176.666 144.14 175.509 141.684C174.209 139.011 171.824 135.904 169.367 133.592C167.127 131.497 163.153 128.679 155.566 125.067L141.981 124.922C129.48 124.706 128.469 124.633 128.902 123.477C129.191 122.755 129.841 120.588 130.347 118.565C130.925 116.614 131.359 112.351 131.359 109.172C131.359 105.416 130.853 101.731 129.914 98.6965C129.119 96.0956 127.385 92.2665 125.939 90.2436C124.567 88.1484 121.676 85.114 119.653 83.5968C117.557 82.0074 114.017 79.9844 107.875 77.3835L30.1958 77.0223L30.6294 75.4328C30.9184 74.4936 32.2191 71.0257 33.592 67.6301C34.9649 64.2345 37.9998 58.238 40.3844 54.2643C42.7689 50.2907 47.3935 43.7885 50.7175 39.8149C53.9691 35.8412 59.6054 30.1337 63.1461 27.1716C66.6868 24.2094 71.8895 20.2358 74.6353 18.3574C77.4534 16.5512 82.8006 13.5168 86.5581 11.6384C90.3156 9.75992 97.1802 6.94227 101.733 5.42507C106.285 3.90788 113.15 2.17394 116.907 1.59596Z" fill="#2F80ED"/>
<path d="M146.317 18.3574C146.461 17.9961 146.533 17.1291 146.533 16.3344C146.533 14.8895 147.039 14.8895 210.844 14.8895V17.7794C210.844 19.3688 211.422 22.042 212.073 23.7037C212.795 25.4376 214.746 28.183 216.408 29.8447C218.142 31.5786 219.515 32.7346 219.515 32.3734C219.443 32.0844 220.166 32.5179 221.033 33.3126C221.828 34.1073 222.695 34.6853 222.839 34.5408C222.984 34.4685 224.14 34.5408 227.464 35.1188L227.247 52.9639C227.103 62.8618 226.741 72.0372 226.525 73.4099C226.235 74.7826 225.657 77.0945 225.224 78.4672C224.718 79.8399 224.212 81.2849 223.923 81.7184C223.706 82.1518 223.49 82.5853 223.49 82.8021C223.49 83.0188 222.839 84.6083 222.044 86.27C221.25 88.0039 220.382 89.3044 220.093 89.3044C219.732 89.3044 219.515 89.8101 219.515 90.3881C219.515 90.966 219.226 91.4718 218.793 91.4718C218.359 91.4718 218.07 91.9775 218.07 92.5555C218.07 93.1335 217.564 93.7837 216.986 94.0004C216.408 94.2172 215.902 94.7951 215.902 95.2286C215.975 95.7344 214.385 97.6128 212.434 99.419C210.483 101.225 207.809 103.609 206.436 104.693C205.063 105.777 203.257 106.86 202.39 107.005C201.45 107.222 200.728 107.583 200.728 107.872C200.728 108.233 199.572 109.1 198.054 109.895C196.537 110.69 194.875 111.773 194.369 112.207C193.863 112.713 192.924 113.146 192.346 113.146C191.768 113.146 191.334 113.363 191.334 113.652C191.334 114.013 190.178 114.88 188.661 115.675C187.143 116.469 185.481 117.553 184.975 117.987C184.47 118.492 183.53 118.926 182.952 118.926C182.374 118.926 181.94 119.143 181.94 119.432C181.94 119.793 181.073 120.587 179.989 121.238C178.833 121.888 177.244 122.321 176.376 122.105C175.437 121.96 174.715 121.527 174.715 121.093C174.715 120.66 174.498 120.515 174.209 120.732C173.847 120.876 172.98 120.515 172.185 119.793C171.391 119.143 169.512 117.914 167.994 117.12C166.477 116.325 165.321 115.458 165.321 115.097C165.321 114.808 165.104 114.735 164.815 114.952C164.454 115.097 163.587 114.735 162.792 114.013C161.997 113.363 160.118 112.135 158.601 111.34C157.083 110.545 155.927 109.678 155.927 109.317C155.927 109.028 155.71 108.956 155.421 109.172C155.06 109.317 154.193 108.956 153.398 108.233C152.603 107.583 151.086 106.571 150.002 106.066C148.846 105.632 147.979 104.91 147.979 104.476C147.979 104.043 147.473 103.754 146.895 103.754C146.317 103.754 145.377 103.031 144.799 102.164C144.221 101.225 142.92 99.997 141.909 99.419C140.897 98.841 140.247 98.1185 140.391 97.8296C140.608 97.4683 139.958 96.7458 138.946 96.1679C137.935 95.5899 137.14 94.7952 137.14 94.3617C137.14 93.9282 136.489 92.9167 135.694 91.9775C134.9 91.1105 134.249 89.9546 134.249 89.4488C134.249 89.0154 134.033 88.5819 133.743 88.5819C133.382 88.6541 132.66 87.5704 132.081 86.27C131.503 84.9695 130.998 83.7413 130.998 83.5246C130.998 83.3078 130.781 82.8743 130.564 82.4408C130.275 82.0074 129.697 80.4179 129.191 78.8285C128.685 77.239 128.035 75.1438 127.89 74.1324C127.674 73.1209 127.385 63.9455 127.023 35.1188L129.336 34.6853C130.636 34.4685 133.31 33.3848 135.333 32.3734C137.356 31.2896 139.596 29.7725 140.464 28.9777C141.258 28.183 142.92 25.5821 144.077 23.1979C145.233 20.8138 146.244 18.6463 146.317 18.3574Z" fill="white"/>
<path d="M22.8976 81.5739C22.8253 81.8629 23.3311 81.7906 24.126 81.4294C25.0654 80.9236 39.2282 80.7069 67.0481 80.8514C101.949 80.9959 108.886 81.1404 110.404 82.0796C111.415 82.6576 112.427 83.0188 112.788 82.9466C113.077 82.8743 113.294 83.0911 113.294 83.5246C113.294 83.958 113.8 84.247 114.378 84.247C114.956 84.247 117.268 85.981 119.436 88.0761C121.604 90.0991 123.41 92.2665 123.41 92.7722C123.41 93.2057 123.699 93.6392 124.133 93.6392C124.567 93.6392 125.578 95.5176 126.445 97.8296C127.601 101.008 127.963 103.537 128.035 109.172C128.035 114.952 127.746 117.192 124.856 124.344L101.949 124.128C83.5955 123.983 77.8147 124.128 73.4069 125.067C70.2997 125.645 66.2532 126.873 64.3745 127.812C62.4235 128.679 60.617 129.691 60.1834 129.98C59.7499 130.269 58.0879 131.858 56.4259 133.375C54.6917 134.965 53.3188 136.554 53.3188 136.988C53.3188 137.421 50.5729 137.71 46.4541 137.71C42.3354 137.71 38.9392 138.071 37.9998 138.649C37.0604 139.083 36.121 139.95 35.832 140.456C35.4707 140.889 34.7481 141.323 34.17 141.323C33.592 141.323 33.0139 141.611 32.9416 141.973C32.7971 142.334 30.9906 143.923 28.9674 145.585C26.8718 147.247 24.8486 148.547 24.415 148.547C23.9815 148.547 23.5479 149.053 23.3311 149.631C23.1144 150.209 22.464 150.715 21.886 150.715C21.3079 150.715 20.6575 151.293 20.4408 152.015C20.1999 152.834 19.8386 153.003 19.3569 152.521C18.9233 152.087 18.7065 148.331 18.7788 143.345C18.9956 135.109 18.9233 134.892 17.4059 134.459C16.4665 134.242 15.7439 133.809 15.7439 133.375C15.7439 132.942 15.3103 132.653 14.8768 132.653C14.371 132.725 12.5645 131.208 10.9025 129.402C9.1683 127.595 7.14504 124.85 6.35019 123.261C5.55533 121.671 5.12178 120.371 5.48307 120.371C5.77211 120.443 5.48307 119.865 4.905 119.215C4.03789 118.276 3.82111 116.036 3.82111 109.245C3.82111 103.031 4.1824 99.997 4.905 98.6965C5.48307 97.685 5.98889 96.3846 6.13341 95.8066C6.20567 95.2286 6.63922 94.6507 7.07278 94.5784C7.43408 94.4339 7.79537 93.8559 7.79537 93.278C7.79537 92.7 8.08441 92.1942 8.51797 92.1942C8.95152 92.1942 9.24056 91.7608 9.24056 91.3273C9.24056 90.8215 10.1799 89.5211 11.3361 88.4374C12.4922 87.2814 13.7929 86.4145 14.2265 86.4145C14.66 86.4145 15.0213 86.1255 15.0213 85.692C15.0213 85.2585 16.322 84.3193 17.9117 83.5246C19.5014 82.7298 20.8021 82.2963 20.8021 82.6576C20.7298 82.9466 21.2356 82.6576 21.886 82.0796C22.5363 81.5016 22.9698 81.2849 22.8976 81.5739Z" fill="white"/>
<path d="M73.1901 128.607C75.2134 128.39 76.9476 128.029 77.0921 127.884C77.2366 127.74 93.0614 127.595 112.138 127.595C131.287 127.595 149.062 127.957 151.808 128.318C154.482 128.751 158.312 129.835 160.263 130.847C162.286 131.858 165.176 133.881 166.766 135.398C168.428 136.843 169.729 138.505 169.656 139.011C169.656 139.444 170.018 139.878 170.379 139.878C170.813 139.878 171.102 140.383 171.102 140.961C171.102 141.539 171.463 142.045 171.824 142.045C172.258 142.045 173.197 144.212 173.992 146.958C175.004 150.498 175.365 153.388 175.148 157.578C175.004 160.757 174.715 164.369 174.426 165.525C174.136 166.681 173.558 167.982 173.197 168.415C172.836 168.849 172.764 169.427 173.125 169.716C173.414 170.005 173.197 170.221 172.764 170.221C172.258 170.221 171.969 170.438 172.113 170.799C172.33 171.088 171.029 173.184 169.223 175.496C167.489 177.735 165.538 179.614 164.96 179.614C164.381 179.614 163.876 179.903 163.876 180.336C163.876 180.77 163.587 181.059 163.153 181.059C162.792 181.059 161.78 181.637 160.985 182.359C159.685 183.443 159.54 184.454 159.54 191.751C159.54 196.664 159.251 199.843 158.817 199.843C158.456 199.843 157.95 199.337 157.734 198.759C157.517 198.181 156.866 197.676 156.288 197.676C155.71 197.676 155.06 197.17 154.843 196.592C154.626 196.014 153.976 195.508 153.398 195.508C152.82 195.508 152.17 195.002 151.953 194.424C151.736 193.846 151.086 193.341 150.508 193.341C149.93 193.341 149.279 192.835 149.062 192.257C148.846 191.679 148.195 191.173 147.617 191.173C147.039 191.173 146.317 190.74 146.028 190.306C145.666 189.801 144.944 189.078 144.293 188.645L144.292 188.644C143.641 188.21 142.342 187.344 141.403 186.694C139.813 185.61 136.273 185.466 104.984 185.249C76.1527 185.104 70.0107 184.888 68.4932 183.949C67.4816 183.371 66.47 183.009 66.181 183.082C65.8197 183.154 65.6029 182.937 65.6029 182.504C65.6029 182.07 65.3138 181.926 64.8803 182.142C64.4467 182.359 62.2067 180.625 59.8221 178.385C57.3653 176.074 55.4143 173.762 55.4866 173.328C55.4866 172.822 55.2698 172.389 54.9807 172.389C54.6194 172.389 53.8246 171.233 53.1743 169.716C52.4517 168.199 51.6568 165.814 51.3678 164.442C51.0787 163.069 50.862 159.673 50.862 156.856C50.862 154.038 51.0065 151.004 51.151 149.992C51.2955 148.981 51.7291 147.753 52.1626 147.247C52.5962 146.741 52.7407 146.308 52.4517 146.38C52.0904 146.38 52.6684 144.79 53.6801 142.767C54.6917 140.817 55.7756 139.155 56.2092 139.155C56.6427 139.155 56.9317 138.722 56.9317 138.288C56.9317 137.782 57.6543 136.626 58.5215 135.759C59.3163 134.82 60.4725 134.098 60.9783 134.098C61.5564 134.098 61.9899 133.809 61.9899 133.375C61.9899 132.942 63.7241 131.858 65.8197 130.847C67.8429 129.835 71.2391 128.824 73.1901 128.607Z" fill="white"/>
<path d="M148.773 26.0878C149.207 24.1372 149.785 22.2587 149.93 21.8975C150.074 21.6085 163.009 21.464 206.87 21.753L207.304 25.3654C207.52 27.3883 208.243 29.9892 208.893 31.1452C209.471 32.3734 210.772 34.0351 211.711 34.902C212.578 35.769 214.24 36.7805 215.397 37.2139C216.48 37.6474 218.142 38.0087 219.154 38.0087C220.527 38.0087 221.105 38.5144 221.466 40.0316C221.683 41.1153 221.683 48.629 221.466 56.793C221.177 66.6909 220.672 72.9042 219.949 75.5773C219.299 77.7448 217.709 81.8629 216.336 84.6083C214.891 87.5704 212 91.6885 209.255 94.5784C205.714 98.3353 201.812 101.225 191.334 107.727C183.964 112.351 177.46 115.964 176.882 115.891C176.232 115.747 170.379 112.424 163.876 108.45C154.626 102.887 150.652 99.9247 146.1 95.4454C141.62 91.0383 139.596 88.3651 137.645 84.247C136.2 81.2849 134.538 76.4443 133.888 73.6267C133.093 69.653 132.876 64.5957 133.165 38.3699L136.056 37.9364C137.645 37.7197 139.958 37.0695 141.114 36.4192C142.27 35.8412 144.366 34.0351 145.594 32.5179C146.967 30.8562 148.34 28.183 148.773 26.0878Z" fill="#333333"/>
<path d="M35.1817 110.328C35.1094 108.956 35.7598 107.366 37.0604 105.993C38.6501 104.115 39.5172 103.754 42.1908 103.754C44.8644 103.754 45.6593 104.115 47.1767 105.921C48.1884 107.149 48.9832 109.028 48.9832 110.256C48.9832 111.484 48.1884 113.363 47.1767 114.591C45.6593 116.397 44.8644 116.758 42.1186 116.758C39.3727 116.758 38.5779 116.397 37.0604 114.591C36.0488 113.435 35.1817 111.484 35.1817 110.328Z" fill="#333333"/>
<path d="M59.0995 110.256C59.1718 108.161 59.6776 106.788 60.906 105.56C62.1344 104.332 63.4351 103.754 65.2416 103.754C66.6145 103.754 68.421 104.043 69.2159 104.476C70.0107 104.91 71.1669 106.355 71.7449 107.727C72.6843 109.967 72.6843 110.545 71.7449 112.785C71.1669 114.157 70.0107 115.602 69.2159 116.036C68.421 116.469 66.6145 116.758 65.2416 116.758C63.5074 116.758 62.1344 116.18 60.906 114.952C59.5331 113.579 59.0995 112.424 59.0995 110.256Z" fill="#333333"/>
<path d="M82.5838 110.256C82.5838 107.872 83.0174 106.86 84.6071 105.488C85.98 104.332 87.5697 103.754 89.304 103.754C91.255 103.682 92.4834 104.187 94.0008 105.705C95.446 107.149 96.0241 108.45 96.0241 110.256C96.0241 111.99 95.3737 113.435 94.1453 114.808C92.7724 116.325 91.6885 116.758 89.4485 116.758C87.4252 116.758 85.98 116.253 84.5348 115.024C83.0174 113.652 82.5838 112.64 82.5838 110.256Z" fill="#333333"/>
<path d="M84.8239 153.532C85.6187 152.882 86.7026 152.16 87.2807 151.943C87.8588 151.726 88.5814 151.509 88.8704 151.509C89.2317 151.437 90.6046 151.943 91.9776 152.521C93.3505 153.099 94.7957 154.255 95.2292 155.05C95.6628 155.844 95.9518 157.578 95.9518 158.879C96.0241 160.468 95.3737 161.841 94.0731 163.213C92.7001 164.586 91.3995 165.164 89.5207 165.164C88.0755 165.164 86.1968 164.658 85.2574 164.08C84.3903 163.502 83.3064 161.913 82.9451 160.685C82.4393 159.168 82.4393 157.65 82.8729 156.494C83.2342 155.483 84.1013 154.183 84.8239 153.532Z" fill="#333333"/>
<path d="M106.935 155.411C107.441 154.399 108.886 153.099 110.042 152.521C111.199 151.943 113.005 151.582 114.017 151.798C115.028 152.015 116.69 153.171 117.774 154.327C119.075 155.7 119.797 157.289 119.797 158.662C119.797 160.107 119.075 161.552 117.702 162.997C116.112 164.586 114.884 165.164 113.005 165.164C111.054 165.164 109.826 164.586 108.236 162.997C107.008 161.769 106.068 160.035 106.068 159.023C106.068 158.012 106.502 156.422 106.935 155.411Z" fill="#333333"/>
<path d="M130.636 155.05C131.07 154.255 132.443 153.171 133.743 152.593C134.972 152.015 136.851 151.726 137.862 151.943C138.874 152.16 140.391 153.027 141.258 153.894C142.198 154.688 143.065 156.205 143.209 157.217C143.354 158.228 143.065 160.107 142.487 161.407C141.909 162.636 140.825 164.08 140.03 164.442C139.235 164.875 137.501 165.164 136.2 165.164C134.611 165.236 133.238 164.586 131.865 163.213C130.492 161.841 129.841 160.468 129.914 158.879C129.914 157.578 130.203 155.844 130.636 155.05Z" fill="#333333"/>
<path d="M151.375 29.1945C151.519 28.472 151.953 27.2438 152.314 26.4491C153.037 25.0764 153.832 25.0041 204.341 25.0041V26.9548C204.341 28.1108 204.991 30.2782 205.714 31.8676C206.436 33.4571 208.026 35.769 209.11 36.9972C210.266 38.2254 212.651 39.7426 217.709 41.4765V55.8538C217.637 63.7287 217.42 71.0257 217.131 72.1095L217.131 72.1102C216.842 73.2661 216.408 74.9996 216.191 76.0831C215.975 77.239 215.541 78.395 215.324 78.8285C215.035 79.262 214.818 79.6954 214.818 79.9122C214.818 80.1289 214.313 81.3571 213.735 82.6576C213.157 83.958 212.434 85.0417 212.145 84.9695C211.784 84.9695 211.567 85.4752 211.567 86.0532C211.567 86.6312 211.278 87.1369 210.844 87.1369C210.411 87.1369 210.122 87.6427 210.122 88.2206C210.122 88.7986 209.616 89.4488 209.038 89.6656C208.46 89.8823 207.954 90.5326 207.954 91.1105C207.954 91.6885 206.87 92.989 205.642 94.0004C204.341 95.0119 202.751 96.3123 202.173 96.8903C201.595 97.4683 200.656 97.974 200.222 97.974C199.716 97.974 199.283 98.1908 199.283 98.4798C199.283 98.841 198.127 99.708 196.609 100.503C195.092 101.297 193.213 102.526 192.418 103.176C191.623 103.898 190.756 104.26 190.467 104.115C190.106 103.898 189.889 104.043 189.889 104.476C189.889 104.91 189.383 105.199 188.805 105.199C188.227 105.199 187.721 105.488 187.721 105.921C187.721 106.355 186.926 106.788 185.915 107.005C184.903 107.222 184.108 107.583 184.108 107.872C184.108 108.233 182.952 109.1 181.435 109.895C179.917 110.69 178.472 111.629 178.183 112.062C177.822 112.496 176.666 112.279 175.076 111.34C173.631 110.545 172.547 109.678 172.547 109.317C172.547 109.028 172.33 108.956 172.041 109.172C171.68 109.317 170.813 108.956 170.018 108.233C169.223 107.583 167.344 106.355 165.827 105.56C164.309 104.765 163.153 103.898 163.153 103.537C163.153 103.248 162.936 103.176 162.647 103.393C162.286 103.537 161.419 103.176 160.624 102.453C159.829 101.803 157.878 100.575 156.361 99.7802C154.843 98.9855 151.664 96.6013 149.352 94.5062C146.967 92.4832 145.088 90.4603 145.088 90.0268C145.088 89.5933 144.438 88.6541 143.643 87.8594C142.848 87.0647 142.198 85.9087 142.198 85.3307C142.198 84.7528 141.909 84.247 141.475 84.247C141.042 84.247 140.536 83.5245 140.247 82.5853C139.958 81.7184 139.669 80.8514 139.669 80.6347C139.596 80.4179 139.235 79.4787 138.802 78.4672C138.368 77.4558 137.645 75.3606 137.284 73.7711C136.778 72.0372 136.562 64.8125 136.778 41.4765L139.452 40.4651C140.969 39.8871 142.198 39.5981 142.198 39.8148C142.198 40.0316 143.065 39.4536 144.077 38.5866C145.088 37.6474 146.895 36.058 148.051 34.9743C149.207 33.8183 149.93 32.9513 149.568 32.9513C149.279 33.0236 149.568 32.4456 150.146 31.7954C150.724 31.0729 151.303 29.9169 151.375 29.1945Z" fill="white"/>
<path d="M38.7224 110.112C38.6501 108.883 39.0837 107.872 40.0231 107.438C40.7457 107.005 41.6128 106.644 41.9741 106.644C42.2631 106.644 43.1302 106.933 43.9251 107.366C44.8885 107.848 45.3703 108.811 45.3703 110.256C45.3703 111.412 45.1535 112.568 44.8644 112.785C44.5032 112.929 43.4915 113.29 42.4799 113.435C41.4683 113.652 40.2398 113.435 39.734 112.929C39.2282 112.424 38.7947 111.195 38.7224 110.112Z" fill="white"/>
<path d="M61.9899 110.473C61.9899 109.967 62.568 108.883 63.2906 108.161C63.9409 107.366 65.0971 106.716 65.8197 106.716C66.47 106.644 67.5539 107.149 68.132 107.727C68.71 108.305 69.2159 109.389 69.2159 110.112C69.2159 110.762 68.9268 111.773 68.6378 112.207C68.3487 112.713 67.3371 113.29 66.3255 113.507C65.2416 113.724 64.0132 113.363 63.2183 112.568C62.4957 111.918 61.9177 110.906 61.9899 110.473Z" fill="white"/>
<path d="M86.1968 110.184C86.1968 109.028 86.7026 107.727 87.2807 107.366C87.8588 107.005 88.8704 106.644 89.4485 106.644C90.0266 106.716 91.1105 107.511 91.833 108.45C92.9892 110.184 92.9892 110.328 91.833 111.99C90.8937 113.29 90.0266 113.724 88.7259 113.435C87.7143 113.29 86.7749 112.929 86.5581 112.713C86.3413 112.496 86.1968 111.34 86.1968 110.184Z" fill="white"/>
<path d="M86.0523 158.084C86.1968 157.145 86.7749 156.061 87.353 155.7C87.931 155.339 88.8704 155.05 89.4485 155.05C90.0266 155.05 91.1105 155.555 91.833 156.278C92.7001 157.145 92.9892 158.156 92.7724 159.168C92.5556 160.107 91.544 161.263 90.5324 161.696C89.0149 162.491 88.5814 162.419 87.2807 161.191C86.4136 160.324 85.9078 159.095 86.0523 158.084Z" fill="white"/>
<path d="M109.681 159.023C109.681 158.012 110.042 156.783 110.548 156.278C110.982 155.7 112.066 155.339 112.861 155.339C113.728 155.411 114.812 155.7 115.245 155.989C115.751 156.278 116.184 157.506 116.184 158.662C116.184 160.179 115.679 161.046 114.595 161.624C113.366 162.202 112.499 162.202 111.343 161.624C110.259 161.118 109.681 160.179 109.681 159.023Z" fill="white"/>
<path d="M132.66 158.517C132.587 158.084 133.165 157.072 133.888 156.35C134.611 155.628 135.767 155.05 136.489 155.05C137.284 155.05 138.368 155.555 138.946 156.133C139.524 156.711 140.03 157.795 140.03 158.445C140.03 159.168 139.452 160.324 138.729 161.046C138.079 161.769 137.067 162.347 136.634 162.274C136.128 162.274 135.044 161.624 134.249 160.829C133.454 160.035 132.732 159.023 132.66 158.517Z" fill="white"/>
<path d="M169.729 41.2598C171.102 40.4651 173.269 39.6704 174.642 39.4536C175.943 39.2369 178.255 39.2369 179.7 39.4536C181.146 39.6704 183.386 40.5373 184.686 41.3321C185.987 42.0545 187.577 43.4995 188.299 44.5109C189.022 45.5224 190.034 47.4731 190.467 48.8458C190.973 50.2185 191.334 53.2529 191.334 59.6829L198.921 60.0441L199.066 72.6874C199.21 81.9351 198.994 85.5475 198.343 86.27C197.693 86.9924 192.852 87.2092 177.244 87.2092C161.925 87.1369 156.794 86.9202 156.072 86.27C155.421 85.5475 155.205 82.0796 155.205 73.6267C155.205 67.1244 155.349 61.3446 155.566 60.7666C155.855 59.9719 156.939 59.6829 163.153 59.6829V55.5648C163.153 53.2529 163.514 50.2185 164.02 48.8458C164.454 47.4731 165.393 45.4502 166.043 44.4387C166.694 43.4272 168.356 41.9823 169.729 41.2598Z" fill="#333333"/>
<path d="M183.024 59.4661C180.206 59.6106 175.365 59.6106 172.186 59.4661C169.006 59.3939 171.246 59.2494 177.244 59.2494C183.241 59.2494 185.843 59.3939 183.024 59.4661Z" fill="#F1F1F1"/>
<path d="M170.018 45.5224C170.813 44.6554 172.258 43.5717 173.269 43.2105C174.281 42.8492 176.232 42.6325 177.605 42.7048C178.978 42.8492 180.568 42.9215 181.001 42.9937C181.507 42.9937 182.808 44.0052 183.891 45.0889C185.048 46.2449 186.348 47.8343 186.782 48.7013C187.288 49.5683 187.721 52.2414 187.721 58.9604H166.766V54.6256C166.766 52.2414 167.2 49.5683 167.633 48.7735C168.139 47.9066 169.223 46.4616 170.018 45.5224Z" fill="white"/>
<path d="M158.818 83.5246V62.5728H195.67V83.5246H158.818Z" fill="white"/>
<path d="M176.015 69.7253C175.943 68.2804 176.16 66.9076 176.521 66.6909C176.882 66.4019 177.388 66.1852 177.749 66.1852C178.038 66.1852 178.328 67.5579 178.328 69.2918C178.255 71.1702 178.689 72.7597 179.411 73.4099C180.062 73.9879 180.568 75.2161 180.495 76.1553C180.495 77.0223 179.845 78.106 179.05 78.4672C178.255 78.9007 176.955 79.0452 176.16 78.8285C175.293 78.6117 174.57 77.6725 174.281 76.5166C173.992 75.1439 174.281 74.1324 175.004 73.4099C175.654 72.7597 176.087 71.2425 176.015 69.7253Z" fill="#333333"/>
</svg>
